<svg version="1.0" xmlns="http://www.w3.org/2000/svg" width="682.667" height="682.667" viewBox="0 0 512 512"><path d="M237.9.4c-.2.2-4 .6-8.3 1-4.4.4-8.2.8-8.5 1-.3.2-3.1.7-6.1 1.1-3 .3-7.5 1.1-10 1.7-2.5.5-5.6 1.2-7 1.4-5.2 1-26.4 7.4-26.9 8.1-.5.7-2.4 1.2-5.8 1.5-.7.1-1.3.5-1.3 1 0 .4-.8.8-1.8.8s-2.2.3-2.6.7c-.4.5-1.1.8-1.4.8-1.8.2-5.2 1.7-5.2 2.4 0 .4-.6.8-1.2.8-2 0-16.7 7.5-28.3 14.4C102.2 49.8 77.9 70.2 63 87.9c-2.5 3-5 5.9-5.5 6.5-5.1 5.5-21.5 29.5-21.5 31.4 0 .6-.4 1.2-.9 1.4-1.1.4-11.7 21-11.3 22 .1.5-.2.8-.8.8-.6 0-.9.3-.8.7.1.5-.4 2-1 3.5-.7 1.6-1.7 4-2.4 5.5-.6 1.6-1.1 3.1-1 3.5.1.5-.3.8-1 .8-.6 0-.9.3-.6.6.3.3-.5 3.3-1.8 6.7-1.3 3.3-2.4 6.6-2.4 7.3 0 .7-.5 2.5-1.2 4.1-1.2 3-1.4 3.6-2.1 7.3-.3 1.4-.8 3.2-1.1 4-.3.8-.7 2.6-1 4-.2 1.4-1.1 5.9-2 10-3.3 16.4-4 24.6-4.1 47 0 17 .6 28.9 1.9 36.5.3 1.6.8 4.3 1 6 1.2 8.5 7.5 34.6 8.5 35.5.3.3.6.9.7 1.5.2 2.2 2.8 9.5 3.3 9.5.6 0 1 1.8 1.3 5.7.1.7.4 1.3.8 1.3.3 0 1.2 1.7 1.9 3.7 1.4 3.8 9.4 20.5 12.1 25.3 5.3 9.3 13.8 22.4 16.6 25.7 1.3 1.5 2.4 3.2 2.4 3.6 0 .5.6 1.4 1.3 2.1.6.7 2.8 3.3 4.7 5.7 9.1 11.2 31.6 33.9 33.8 33.9.6 0 1.2.4 1.2.9 0 1.4 18 14.7 28.5 21.2 12.1 7.5 26.2 14.9 26.9 14.2.3-.4.6-.1.6.5 0 .7.3 1.1.8 1 .4-.1 2.7.8 5.2 1.9 5.4 2.5 17.9 7.4 20 7.8.8.2 1.6.4 1.8.5.1.2.7.4 1.2.5.6.1 1.1.3 1.3.5.1.1 1 .3 2 .6 2.7.6 4.1 1.1 5.7 1.7 1.9.7 17.4 4.4 21.5 5.1 1.7.2 4.4.7 6 1 12.2 2.3 22.2 3 42 3.1 21 0 29.9-.7 45-3.5 2.8-.5 6.1-1.1 7.5-1.4 6.9-1.1 21-5 21-5.8 0-.5.4-.7.9-.4.9.6 23.9-7.2 27.7-9.3 1.1-.6 6.1-3 11.1-5.5 29.2-14 55.2-33.7 78.1-59.2 3-3.2 6.3-7 7.5-8.3 1.2-1.3 2.1-2.5 2-2.7-.1-.2.9-1.6 2.3-3.1 3.2-3.5 16.1-22.9 20.1-30.3 1.7-3 4.4-8.2 6.1-11.5 2.8-5.4 4-8 8.7-19 2.9-6.8 6.4-17.5 5.7-17.5-.4 0-.2-.4.4-.8.5-.4 2-4.5 3.1-9.2 1.2-4.7 2.5-9.9 2.9-11.5.4-1.7.8-3.5.9-4 .1-.6.4-2.4.8-4 2.9-13.2 4.1-27.2 4.2-48 0-21.9-1-33.7-4.5-50.5-.6-3-1.4-6.6-1.6-8-.3-1.4-1.2-4.9-2.1-7.9-.8-2.9-1.6-5.9-1.7-6.5-.1-.6-.4-1.6-.8-2.1-.3-.6-.9-2.7-1.3-4.8-.4-2-1-3.7-1.4-3.7-.4 0-.8-1.2-.9-2.7-.1-1.5-.8-3-1.5-3.5-.6-.4-.9-.8-.4-.8.4 0-.1-1.7-1.2-3.8-1-2-1.9-4-2-4.5 0-.4-.8-2.4-1.7-4.5-1-2-1.8-3.9-1.8-4.2-.2-.7-8-15.9-10.2-19.9-3.2-5.7-17.1-26.4-19.3-28.8-1.2-1.2-2.1-2.5-2.1-2.9 0-.4-1.1-1.7-2.5-3s-2.5-2.6-2.5-3c0-1.3-21.5-23.1-28.5-28.9-2.6-2.2-5.3-4.5-5.9-5-2.8-2.6-9.9-7.8-18.6-13.6-12.1-8-12.4-8.2-19-11.7-3-1.6-8.5-4.5-12.2-6.5-3.8-2-6.8-3.4-6.8-3.1 0 .2-1.1-.3-2.4-1.2-1.4-.8-2.6-1.5-2.8-1.3-.2.1-1.9-.5-3.8-1.4-1.9-.8-6.4-2.5-10-3.7-3.6-1.2-7.4-2.6-8.5-3.1-2.6-1.1-26-7-30-7.5-1.6-.2-4.1-.6-5.5-.9-1.4-.3-4.3-.7-6.5-1-2.2-.3-5.6-.8-7.5-1.1-3.9-.6-45.6-1.5-46.1-1z"/></svg>